<?xml version="1.0" encoding="UTF-8" standalone="no"?>
<svg
   xmlns:dc="http://purl.org/dc/elements/1.1/"
   xmlns:cc="http://creativecommons.org/ns#"
   xmlns:rdf="http://www.w3.org/1999/02/22-rdf-syntax-ns#"
   xmlns:svg="http://www.w3.org/2000/svg"
   xmlns="http://www.w3.org/2000/svg"
   xmlns:sodipodi="http://sodipodi.sourceforge.net/DTD/sodipodi-0.dtd"
   xmlns:inkscape="http://www.inkscape.org/namespaces/inkscape"
   sodipodi:docname="ebbyware-icon-rounded.svg"
   inkscape:version="1.0beta2 (2b71d25, 2019-12-03)"
   id="svg8"
   version="1.1"
   viewBox="0 0 100 100"
   height="100mm"
   width="100mm">
  <metadata
     id="metadata972">
    <rdf:RDF>
      <cc:Work
         rdf:about="">
        <dc:format>image/svg+xml</dc:format>
        <dc:type
           rdf:resource="http://purl.org/dc/dcmitype/StillImage" />
        <dc:title></dc:title>
      </cc:Work>
    </rdf:RDF>
  </metadata>
  <defs
     id="defs970" />
  <sodipodi:namedview
     pagecolor="#ffffff"
     bordercolor="#666666"
     inkscape:document-rotation="0"
     borderopacity="1"
     objecttolerance="10"
     gridtolerance="10"
     guidetolerance="10"
     inkscape:pageopacity="0"
     inkscape:pageshadow="2"
     inkscape:window-width="1229"
     inkscape:window-height="755"
     id="namedview968"
     showgrid="false"
     inkscape:zoom="0.48729658"
     inkscape:cx="220.34233"
     inkscape:cy="154.29493"
     inkscape:window-x="0"
     inkscape:window-y="23"
     inkscape:window-maximized="1"
     inkscape:current-layer="svg8" />
  <rect
     rx="10"
     ry="10"
     y="8.8817842e-16"
     x="0"
     height="100"
     width="100"
     id="rect852"
     style="opacity:1;fill:#ffffff;fill-opacity:1;stroke:none;stroke-width:4.79999;stroke-linejoin:round" />
  <g
     inkscape:label="ebby"
     id="g1029"
     transform="translate(-52.561284,-99.131574)">
    <path
       inkscape:label="fin"
       style="color:#000000;font-style:normal;font-variant:normal;font-weight:normal;font-stretch:normal;font-size:medium;line-height:normal;font-family:sans-serif;font-variant-ligatures:normal;font-variant-position:normal;font-variant-caps:normal;font-variant-numeric:normal;font-variant-alternates:normal;font-variant-east-asian:normal;font-feature-settings:normal;font-variation-settings:normal;text-indent:0;text-align:start;text-decoration:none;text-decoration-line:none;text-decoration-style:solid;text-decoration-color:#000000;letter-spacing:normal;word-spacing:normal;text-transform:none;writing-mode:lr-tb;direction:ltr;text-orientation:mixed;dominant-baseline:auto;baseline-shift:baseline;text-anchor:start;white-space:normal;shape-padding:0;shape-margin:0;inline-size:0;clip-rule:nonzero;display:inline;overflow:visible;visibility:visible;isolation:auto;mix-blend-mode:normal;color-interpolation:sRGB;color-interpolation-filters:linearRGB;solid-color:#000000;solid-opacity:1;vector-effect:none;fill:#ffa4a4;fill-opacity:1;fill-rule:nonzero;stroke:none;stroke-width:3.5;stroke-linecap:butt;stroke-linejoin:miter;stroke-miterlimit:4;stroke-dasharray:none;stroke-dashoffset:0;stroke-opacity:1;paint-order:stroke fill markers;color-rendering:auto;image-rendering:auto;shape-rendering:auto;text-rendering:auto;enable-background:accumulate;stop-color:#000000"
       d="m 112.543,167.5738 c -0.10351,-0.003 -0.20484,-0.001 -0.30556,0.004 -0.24473,0.0129 -0.48424,0.0471 -0.73283,0.10028 -0.21187,0.0796 -0.43819,0.14141 -0.66997,0.17785 -0.0329,0.0104 -0.0634,0.0177 -0.0969,0.0281 -1.55778,0.49591 -2.71405,1.07635 -3.52437,2.24795 -2.77622,1.09949 -7.221147,3.50784 -6.44899,6.30191 -2.059474,1.52697 -3.586212,3.43157 -3.021571,4.643 0.898114,1.92669 5.101641,1.58363 7.012651,0.86388 0.67168,-0.2529 3.35562,-1.30814 6.48377,-2.62707 -2.59046,2.19415 -4.74594,4.1105 -5.27554,4.59487 -1.50574,1.37936 -3.71107,4.97423 -2.39841,6.64623 0.81936,1.04351 3.17869,0.55588 5.45608,-0.57301 2.91904,2.10417 6.96471,-0.64406 8.61337,-2.87447 2.00708,-0.42124 3.67279,-1.73095 4.61358,-3.46488 0.47636,-0.87795 0.92524,-2.11436 1.19887,-3.82593 0.16384,-1.02491 0.22704,-2.13227 0.0855,-3.22617 -6.90841,1.03191 -8.99526,-2.97302 -8.18945,-8.31382 -1.25726,-0.47741 -2.07557,-0.68593 -2.80025,-0.70274 z"
       id="path135"
       inkscape:connector-curvature="0" />
    <path
       inkscape:label="top-back-leg"
       inkscape:connector-curvature="0"
       d="m 118.38709,139.6416 c -5.84239,2.25181 -7.37488,2.89713 -13.0204,3.99097 -0.33182,0.0643 -0.67169,0.31554 -1.01182,0.70384 0.59519,0.65492 1.14642,1.35011 1.65054,2.08049 0.78788,-0.41497 1.8241,-0.65067 2.98122,-0.80098 0.36422,-0.55629 0.86742,-1.09242 1.69705,-1.46245 3.79874,-1.69444 5.37139,-2.57717 8.00468,-4.32686 -0.0958,-0.0664 -0.19502,-0.12866 -0.30127,-0.18501 z"
       style="color:#000000;font-style:normal;font-variant:normal;font-weight:normal;font-stretch:normal;font-size:medium;line-height:normal;font-family:sans-serif;font-variant-ligatures:normal;font-variant-position:normal;font-variant-caps:normal;font-variant-numeric:normal;font-variant-alternates:normal;font-variant-east-asian:normal;font-feature-settings:normal;font-variation-settings:normal;text-indent:0;text-align:start;text-decoration:none;text-decoration-line:none;text-decoration-style:solid;text-decoration-color:#000000;letter-spacing:normal;word-spacing:normal;text-transform:none;writing-mode:lr-tb;direction:ltr;text-orientation:mixed;dominant-baseline:auto;baseline-shift:baseline;text-anchor:start;white-space:normal;shape-padding:0;shape-margin:0;inline-size:0;clip-rule:nonzero;display:inline;overflow:visible;visibility:visible;isolation:auto;mix-blend-mode:normal;color-interpolation:sRGB;color-interpolation-filters:linearRGB;solid-color:#000000;solid-opacity:1;vector-effect:none;fill:#ffa4a4;fill-opacity:1;fill-rule:nonzero;stroke:none;stroke-width:3.49999;stroke-linecap:butt;stroke-linejoin:miter;stroke-miterlimit:4;stroke-dasharray:none;stroke-dashoffset:0;stroke-opacity:1;paint-order:stroke fill markers;color-rendering:auto;image-rendering:auto;shape-rendering:auto;text-rendering:auto;enable-background:accumulate;stop-color:#000000"
       id="path141" />
    <path
       inkscape:connector-curvature="0"
       id="path201"
       style="color:#000000;font-style:normal;font-variant:normal;font-weight:normal;font-stretch:normal;font-size:medium;line-height:normal;font-family:sans-serif;font-variant-ligatures:normal;font-variant-position:normal;font-variant-caps:normal;font-variant-numeric:normal;font-variant-alternates:normal;font-variant-east-asian:normal;font-feature-settings:normal;font-variation-settings:normal;text-indent:0;text-align:start;text-decoration:none;text-decoration-line:none;text-decoration-style:solid;text-decoration-color:#000000;letter-spacing:normal;word-spacing:normal;text-transform:none;writing-mode:lr-tb;direction:ltr;text-orientation:mixed;dominant-baseline:auto;baseline-shift:baseline;text-anchor:start;white-space:normal;shape-padding:0;shape-margin:0;inline-size:0;clip-rule:nonzero;display:inline;overflow:visible;visibility:visible;isolation:auto;mix-blend-mode:normal;color-interpolation:sRGB;color-interpolation-filters:linearRGB;solid-color:#000000;solid-opacity:1;vector-effect:none;fill:#ffa4a4;fill-opacity:1;fill-rule:nonzero;stroke:none;stroke-width:5.66929;stroke-linecap:butt;stroke-linejoin:miter;stroke-miterlimit:4;stroke-dasharray:none;stroke-dashoffset:0;stroke-opacity:1;paint-order:stroke markers fill;color-rendering:auto;image-rendering:auto;shape-rendering:auto;text-rendering:auto;enable-background:accumulate;stop-color:#000000"
       inkscape:label="globe"
       d="m 339.05664,523.81641 c -39.70644,0 -71.96484,32.25841 -71.96484,71.96484 0,39.70643 32.2584,71.96484 71.96484,71.96484 32.69199,0 60.31798,-21.87577 69.06445,-51.76367 -0.27326,-2.04699 -0.49014,-4.21707 -0.68554,-6.55664 -0.0785,-0.94034 -0.1446,-1.90434 -0.20508,-2.88086 -2.59007,5.38998 -5.03793,10.69591 -7.10352,14.97461 -1.65426,3.42663 -2.83042,5.9678 -4.63476,8.51758 -0.45105,0.63742 -0.9274,1.30236 -1.9043,2.20117 -0.068,0.0625 -0.17281,0.15539 -0.24805,0.22656 -6.72925,9.94618 -16.11285,17.94424 -27.15039,22.96485 2.90188,-2.79655 5.57072,-6.01203 7.96094,-9.57227 2.65175,-3.94979 4.96954,-8.34562 6.92969,-13.07812 -0.15543,-0.12195 -0.30982,-0.24434 -0.44727,-0.3711 -1.41702,-1.30688 -2.03002,-2.57113 -2.4082,-3.51367 -0.75624,-1.88504 -0.74273,-2.88799 -0.78906,-3.82422 -0.0182,-0.36857 -0.0226,-0.73638 -0.0273,-1.10351 -0.20419,0.64276 -0.40172,1.29132 -0.61914,1.92187 h -16.5039 c 1.22764,-8.51372 1.93683,-17.96312 2.02734,-27.94531 h 19.32227 c -0.0637,2.93644 -0.27138,5.81462 -0.58399,8.63867 0.74236,-2.08126 1.55838,-4.23619 2.42969,-6.50781 1.32367,-3.45097 2.82091,-6.98235 4.43555,-10.49219 -0.54153,-9.29354 -2.26735,-18.09644 -5.01758,-26.05273 h 13.19726 c 1.09426,1.93342 2.08756,3.93261 2.98438,5.98242 a 9.0717736,9.0717736 0 0 1 0.16406,-0.13477 c 1.63831,-2.16822 3.20494,-3.81476 4.63477,-4.85351 -11.64673,-24.07559 -36.31374,-40.70703 -64.82227,-40.70703 z m 0,7.43359 c 1.29135,0 3.07528,0.96924 5.15625,3.94531 2.08097,2.97604 4.16799,7.66886 5.91797,13.58594 0.79035,2.67231 1.51162,5.60464 2.16211,8.73828 h -26.4707 c 0.65027,-3.13364 1.37175,-6.06597 2.16211,-8.73828 1.75,-5.91708 3.83895,-10.6099 5.91992,-13.58594 2.08102,-2.97607 3.861,-3.94531 5.15234,-3.94531 z m -11.54102,1.92969 c -2.22711,3.66281 -4.10873,8.29927 -5.72656,13.76953 -0.95963,3.24465 -1.81989,6.78489 -2.57031,10.57031 h -14.55664 c 1.40852,-2.93847 2.97202,-5.68478 4.66797,-8.21094 5.11348,-7.61658 11.33817,-13.17082 18.18554,-16.1289 z m 23.0879,0 c 6.84601,2.9585 13.06899,8.51162 18.18164,16.12695 1.69595,2.52612 3.25753,5.27442 4.66601,8.21289 h -14.55469 c -0.75042,-3.78535 -1.61073,-7.3257 -2.57031,-10.57031 -1.61765,-5.46947 -3.49651,-10.10694 -5.72265,-13.76953 z m -38.67383,2.95312 c -2.90218,2.79689 -5.5723,6.01146 -7.96289,9.57227 -2.41663,3.59962 -4.56589,7.55916 -6.41211,11.81445 h -11.6875 c 6.63734,-9.21725 15.61166,-16.63355 26.0625,-21.38672 z m 54.25976,0 c 10.44951,4.75317 19.4219,12.17027 26.0586,21.38672 H 380.5625 c -1.84622,-4.25529 -3.99546,-8.21479 -6.41211,-11.81445 -2.39022,-3.56024 -5.05906,-6.77564 -7.96094,-9.57227 z m -84.17187,27.39649 h 13.20117 c -2.93817,8.49978 -4.73262,17.95577 -5.13477,27.95508 h -16.38476 c 0.65364,-10.11969 3.59501,-19.60958 8.31836,-27.95508 z m 20.08594,0 h 16.05078 c -1.33144,8.4633 -2.1445,17.91979 -2.32618,27.95508 h -19.27929 c 0.43934,-10.13953 2.41916,-19.63638 5.55469,-27.95508 z m 22.60546,0 h 28.69727 c 1.36464,8.3407 2.22597,17.83925 2.41797,27.95508 h -33.53125 c 0.19162,-10.11583 1.05202,-19.61438 2.41601,-27.95508 z m 35.25,0 h 16.05274 c 3.13548,8.3187 5.11532,17.81555 5.55469,27.95508 h -19.28125 c -0.1818,-10.03529 -0.99473,-19.49178 -2.32618,-27.95508 z m -86.36523,34.41406 h 16.42383 c 0.20031,9.9504 1.77977,19.39602 4.49219,27.94531 h -13.6543 c -4.3536,-8.41069 -6.93665,-17.88905 -7.26172,-27.94531 z m 22.88477,0 h 19.32421 c 0.0907,9.98219 0.79968,19.43159 2.02735,27.94531 h -16.50391 c -2.89183,-8.38677 -4.62908,-17.87283 -4.84765,-27.94531 z m 25.78515,0 h 33.58985 c -0.0956,10.05158 -0.85333,19.53624 -2.11329,27.94531 H 324.375 c -1.25927,-8.40907 -2.01575,-17.89369 -2.11133,-27.94531 z m -37.86523,33.97266 h 12.26953 c 2.03229,5.06789 4.48433,9.74915 7.29883,13.9414 2.39059,3.56081 5.06071,6.77733 7.96289,9.57422 -11.24293,-5.1134 -20.77757,-13.31147 -27.53125,-23.51562 z m 19.28906,0 h 15.12695 c 0.84013,4.59193 1.83761,8.85487 2.97461,12.69921 1.61771,5.46993 3.4977,10.10683 5.72461,13.76954 -6.84714,-2.9582 -13.07026,-8.51256 -18.18359,-16.12891 -2.09862,-3.1259 -3.99187,-6.59335 -5.64258,-10.33984 z m 21.71094,0 h 27.31836 c -0.7536,3.94597 -1.61939,7.59914 -2.58594,10.86718 -1.74998,5.91708 -3.837,10.60987 -5.91797,13.58594 -2.08097,2.97604 -3.8649,3.94531 -5.15625,3.94531 -1.29134,0 -3.07132,-0.96927 -5.15234,-3.94531 -2.08097,-2.97604 -4.16992,-7.66886 -5.91992,-13.58594 -0.96654,-3.26804 -1.83265,-6.92121 -2.58594,-10.86718 z m 33.90039,0 h 15.1289 c -1.65067,3.74641 -3.54396,7.21394 -5.64257,10.33984 -5.11265,7.61529 -11.33563,13.16845 -18.18164,16.12695 2.22604,-3.66251 4.10508,-8.29833 5.72265,-13.76758 1.13699,-3.84434 2.13255,-8.10728 2.97266,-12.69921 z"
       transform="scale(0.26458333)" />
    <path
       inkscape:label="bottom-tail"
       style="color:#000000;font-style:normal;font-variant:normal;font-weight:normal;font-stretch:normal;font-size:medium;line-height:normal;font-family:sans-serif;font-variant-ligatures:normal;font-variant-position:normal;font-variant-caps:normal;font-variant-numeric:normal;font-variant-alternates:normal;font-variant-east-asian:normal;font-feature-settings:normal;font-variation-settings:normal;text-indent:0;text-align:start;text-decoration:none;text-decoration-line:none;text-decoration-style:solid;text-decoration-color:#000000;letter-spacing:normal;word-spacing:normal;text-transform:none;writing-mode:lr-tb;direction:ltr;text-orientation:mixed;dominant-baseline:auto;baseline-shift:baseline;text-anchor:start;white-space:normal;shape-padding:0;shape-margin:0;inline-size:0;clip-rule:nonzero;display:inline;overflow:visible;visibility:visible;isolation:auto;mix-blend-mode:normal;color-interpolation:sRGB;color-interpolation-filters:linearRGB;solid-color:#000000;solid-opacity:1;vector-effect:none;fill:#ffa4a4;fill-opacity:1;fill-rule:nonzero;stroke:none;stroke-width:3.5;stroke-linecap:butt;stroke-linejoin:miter;stroke-miterlimit:4;stroke-dasharray:none;stroke-dashoffset:0;stroke-opacity:1;paint-order:stroke fill markers;color-rendering:auto;image-rendering:auto;shape-rendering:auto;text-rendering:auto;enable-background:accumulate;stop-color:#000000"
       d="m 117.43942,158.60538 c -1.51465,4.75388 -1.41539,11.71637 2.8972,14.87915 5.53743,4.06107 15.6705,-3.12988 15.95834,-10.78107 -7.14803,4.05406 -13.99053,4.47987 -18.85554,-4.09808 z"
       id="path147"
       inkscape:connector-curvature="0" />
    <path
       inkscape:connector-curvature="0"
       id="path1010"
       d="m 107.12638,152.52681 c -2.52904,4.17975 -4.97696,10.51387 -4.867,12.73685 0.0849,1.71479 2.22725,-3.86787 4.62896,-8.44353 0.008,-0.61322 0.023,-1.22876 0.0521,-1.84277 0.0396,-0.83244 0.10519,-1.64922 0.18588,-2.45055 z"
       style="color:#000000;font-style:normal;font-variant:normal;font-weight:normal;font-stretch:normal;font-size:medium;line-height:normal;font-family:sans-serif;font-variant-ligatures:normal;font-variant-position:normal;font-variant-caps:normal;font-variant-numeric:normal;font-variant-alternates:normal;font-variant-east-asian:normal;font-feature-settings:normal;font-variation-settings:normal;text-indent:0;text-align:start;text-decoration:none;text-decoration-line:none;text-decoration-style:solid;text-decoration-color:#000000;letter-spacing:normal;word-spacing:normal;text-transform:none;writing-mode:lr-tb;direction:ltr;text-orientation:mixed;dominant-baseline:auto;baseline-shift:baseline;text-anchor:start;white-space:normal;shape-padding:0;shape-margin:0;inline-size:0;clip-rule:nonzero;display:inline;overflow:visible;visibility:visible;isolation:auto;mix-blend-mode:normal;color-interpolation:sRGB;color-interpolation-filters:linearRGB;solid-color:#000000;solid-opacity:1;vector-effect:none;fill:#ffa4a4;fill-opacity:1;fill-rule:nonzero;stroke:none;stroke-width:4.8;stroke-linecap:butt;stroke-linejoin:round;stroke-miterlimit:4;stroke-dasharray:none;stroke-dashoffset:0;stroke-opacity:1;paint-order:stroke fill markers;color-rendering:auto;image-rendering:auto;shape-rendering:auto;text-rendering:auto;enable-background:accumulate;stop-color:#000000"
       inkscape:label="bottom-front-leg-tip" />
    <path
       inkscape:label="bottom-front-leg"
       style="color:#000000;font-style:normal;font-variant:normal;font-weight:normal;font-stretch:normal;font-size:medium;line-height:normal;font-family:sans-serif;font-variant-ligatures:normal;font-variant-position:normal;font-variant-caps:normal;font-variant-numeric:normal;font-variant-alternates:normal;font-variant-east-asian:normal;font-feature-settings:normal;font-variation-settings:normal;text-indent:0;text-align:start;text-decoration:none;text-decoration-line:none;text-decoration-style:solid;text-decoration-color:#000000;letter-spacing:normal;word-spacing:normal;text-transform:none;writing-mode:lr-tb;direction:ltr;text-orientation:mixed;dominant-baseline:auto;baseline-shift:baseline;text-anchor:start;white-space:normal;shape-padding:0;shape-margin:0;inline-size:0;clip-rule:nonzero;display:inline;overflow:visible;visibility:visible;isolation:auto;mix-blend-mode:normal;color-interpolation:sRGB;color-interpolation-filters:linearRGB;solid-color:#000000;solid-opacity:1;vector-effect:none;fill:#ffa4a4;fill-opacity:1;fill-rule:nonzero;stroke:none;stroke-width:3.5;stroke-linecap:butt;stroke-linejoin:miter;stroke-miterlimit:4;stroke-dasharray:none;stroke-dashoffset:0;stroke-opacity:1;paint-order:stroke fill markers;color-rendering:auto;image-rendering:auto;shape-rendering:auto;text-rendering:auto;enable-background:accumulate;stop-color:#000000"
       d="m 124.67005,147.22788 c -1.56549,0.80486 -3.27434,1.21382 -4.88172,1.68696 -2.32619,0.68474 -4.44974,1.50215 -5.09433,1.9678 0.0538,-0.009 0.006,0.13201 -0.0796,0.36842 3.37023,0.23713 7.44179,1.17768 9.76476,0.22265 1.39215,-0.5723 1.64005,-2.90782 0.29086,-4.24583 z"
       id="path159"
       inkscape:connector-curvature="0" />
    <path
       inkscape:label="top-tail"
       style="color:#000000;font-style:normal;font-variant:normal;font-weight:normal;font-stretch:normal;font-size:medium;line-height:normal;font-family:sans-serif;font-variant-ligatures:normal;font-variant-position:normal;font-variant-caps:normal;font-variant-numeric:normal;font-variant-alternates:normal;font-variant-east-asian:normal;font-feature-settings:normal;font-variation-settings:normal;text-indent:0;text-align:start;text-decoration:none;text-decoration-line:none;text-decoration-style:solid;text-decoration-color:#000000;letter-spacing:normal;word-spacing:normal;text-transform:none;writing-mode:lr-tb;direction:ltr;text-orientation:mixed;dominant-baseline:auto;baseline-shift:baseline;text-anchor:start;white-space:normal;shape-padding:0;shape-margin:0;inline-size:0;clip-rule:nonzero;display:inline;overflow:visible;visibility:visible;isolation:auto;mix-blend-mode:normal;color-interpolation:sRGB;color-interpolation-filters:linearRGB;solid-color:#000000;solid-opacity:1;vector-effect:none;fill:#ffa4a4;fill-opacity:1;fill-rule:nonzero;stroke:none;stroke-width:3.5;stroke-linecap:butt;stroke-linejoin:miter;stroke-miterlimit:4;stroke-dasharray:none;stroke-dashoffset:0;stroke-opacity:1;paint-order:stroke fill markers;color-rendering:auto;image-rendering:auto;shape-rendering:auto;text-rendering:auto;enable-background:accumulate;stop-color:#000000"
       d="m 142.59953,146.366 c -1.49014,2.20456 -8.21473,5.69775 -14.80294,4.76002 -0.38643,1.12175 -1.17608,2.15401 -2.45857,2.68123 -2.40189,0.98747 -4.79441,0.67682 -7.08286,0.37979 1.14115,3.27993 3.512,5.61671 6.9264,6.85285 9.27463,3.3578 17.65793,-6.18184 17.41797,-14.67389 z"
       id="path165"
       inkscape:connector-curvature="0" />
    <path
       inkscape:label="top-front-leg"
       style="color:#000000;font-style:normal;font-variant:normal;font-weight:normal;font-stretch:normal;font-size:medium;line-height:normal;font-family:sans-serif;font-variant-ligatures:normal;font-variant-position:normal;font-variant-caps:normal;font-variant-numeric:normal;font-variant-alternates:normal;font-variant-east-asian:normal;font-feature-settings:normal;font-variation-settings:normal;text-indent:0;text-align:start;text-decoration:none;text-decoration-line:none;text-decoration-style:solid;text-decoration-color:#000000;letter-spacing:normal;word-spacing:normal;text-transform:none;writing-mode:lr-tb;direction:ltr;text-orientation:mixed;dominant-baseline:auto;baseline-shift:baseline;text-anchor:start;white-space:normal;shape-padding:0;shape-margin:0;inline-size:0;clip-rule:nonzero;display:inline;overflow:visible;visibility:visible;isolation:auto;mix-blend-mode:normal;color-interpolation:sRGB;color-interpolation-filters:linearRGB;solid-color:#000000;solid-opacity:1;vector-effect:none;fill:#ffa4a4;fill-opacity:1;fill-rule:nonzero;stroke:none;stroke-width:3.5;stroke-linecap:butt;stroke-linejoin:miter;stroke-miterlimit:4;stroke-dasharray:none;stroke-dashoffset:0;stroke-opacity:1;paint-order:stroke fill markers;color-rendering:auto;image-rendering:auto;shape-rendering:auto;text-rendering:auto;enable-background:accumulate;stop-color:#000000"
       d="m 123.49191,139.62553 c -5.18156,3.51504 -6.52827,4.49091 -11.78002,6.83345 -2.67024,1.19102 -2.87438,15.61541 -1.37071,18.68972 1.18229,2.41721 -0.0704,-13.64278 2.51809,-16.03389 2.58843,-2.39116 9.86683,-2.81037 12.36842,-5.36313 1.11675,-1.13957 0.27221,-3.59434 -1.73578,-4.12615 z"
       id="path171"
       inkscape:connector-curvature="0" />
    <path
       inkscape:label="right-feeler"
       style="color:#000000;font-style:normal;font-variant:normal;font-weight:normal;font-stretch:normal;font-size:medium;line-height:normal;font-family:sans-serif;font-variant-ligatures:normal;font-variant-position:normal;font-variant-caps:normal;font-variant-numeric:normal;font-variant-alternates:normal;font-variant-east-asian:normal;font-feature-settings:normal;font-variation-settings:normal;text-indent:0;text-align:start;text-decoration:none;text-decoration-line:none;text-decoration-style:solid;text-decoration-color:#000000;letter-spacing:normal;word-spacing:normal;text-transform:none;writing-mode:lr-tb;direction:ltr;text-orientation:mixed;dominant-baseline:auto;baseline-shift:baseline;text-anchor:start;white-space:normal;shape-padding:0;shape-margin:0;inline-size:0;clip-rule:nonzero;display:inline;overflow:visible;visibility:visible;isolation:auto;mix-blend-mode:normal;color-interpolation:sRGB;color-interpolation-filters:linearRGB;solid-color:#000000;solid-opacity:1;vector-effect:none;fill:#ffa4a4;fill-opacity:1;fill-rule:nonzero;stroke:none;stroke-width:3.5;stroke-linecap:butt;stroke-linejoin:miter;stroke-miterlimit:4;stroke-dasharray:none;stroke-dashoffset:0;stroke-opacity:1;paint-order:stroke fill markers;color-rendering:auto;image-rendering:auto;shape-rendering:auto;text-rendering:auto;enable-background:accumulate;stop-color:#000000"
       d="m 76.450696,135.50607 c -3.939834,3.21366 -7.119835,8.06609 -8.937659,13.63816 -4.101638,12.5731 -0.317769,25.38976 8.451557,28.62697 0.114211,0.0426 0.228998,0.0834 0.344343,0.1224 v -6.8e-4 c 2.264264,0.75797 4.714638,0.82291 7.189846,0.19056 -2.141739,0.32891 -4.237256,0.12947 -6.182204,-0.58839 -8.76934,-3.2372 -12.553217,-16.05387 -8.451569,-28.62699 1.735826,-5.32132 4.716941,-9.99467 8.425484,-13.20823 z"
       id="path177"
       inkscape:connector-curvature="0" />
    <path
       inkscape:label="left-feeler"
       style="color:#000000;font-style:normal;font-variant:normal;font-weight:normal;font-stretch:normal;font-size:medium;line-height:normal;font-family:sans-serif;font-variant-ligatures:normal;font-variant-position:normal;font-variant-caps:normal;font-variant-numeric:normal;font-variant-alternates:normal;font-variant-east-asian:normal;font-feature-settings:normal;font-variation-settings:normal;text-indent:0;text-align:start;text-decoration:none;text-decoration-line:none;text-decoration-style:solid;text-decoration-color:#000000;letter-spacing:normal;word-spacing:normal;text-transform:none;writing-mode:lr-tb;direction:ltr;text-orientation:mixed;dominant-baseline:auto;baseline-shift:baseline;text-anchor:start;white-space:normal;shape-padding:0;shape-margin:0;inline-size:0;clip-rule:nonzero;display:inline;overflow:visible;visibility:visible;isolation:auto;mix-blend-mode:normal;color-interpolation:sRGB;color-interpolation-filters:linearRGB;solid-color:#000000;solid-opacity:1;vector-effect:none;fill:#ffa4a4;fill-opacity:1;fill-rule:nonzero;stroke:none;stroke-width:3.5;stroke-linecap:butt;stroke-linejoin:miter;stroke-miterlimit:4;stroke-dasharray:none;stroke-dashoffset:0;stroke-opacity:1;paint-order:stroke fill markers;color-rendering:auto;image-rendering:auto;shape-rendering:auto;text-rendering:auto;enable-background:accumulate;stop-color:#000000"
       d="m 71.494762,134.59806 c -3.775914,2.3852 -7.165182,5.9668 -9.697223,10.24751 -6.732814,11.38338 -5.820667,24.71593 2.037333,29.77903 0.102252,0.0662 0.20545,0.13088 0.309576,0.19391 v -6.9e-4 c 2.045634,1.23123 4.423306,1.82645 6.976548,1.74648 -2.161933,-0.14388 -4.164074,-0.79343 -5.906735,-1.91631 -7.857627,-5.06317 -8.769759,-18.39522 -2.037332,-29.77837 2.468424,-4.17317 5.753153,-7.68452 9.419748,-10.06965 z"
       id="path183"
       inkscape:connector-curvature="0" />
    <path
       inkscape:label="thorax"
       style="color:#000000;font-style:normal;font-variant:normal;font-weight:normal;font-stretch:normal;font-size:medium;line-height:normal;font-family:sans-serif;font-variant-ligatures:normal;font-variant-position:normal;font-variant-caps:normal;font-variant-numeric:normal;font-variant-alternates:normal;font-variant-east-asian:normal;font-feature-settings:normal;font-variation-settings:normal;text-indent:0;text-align:start;text-decoration:none;text-decoration-line:none;text-decoration-style:solid;text-decoration-color:#000000;letter-spacing:normal;word-spacing:normal;text-transform:none;writing-mode:lr-tb;direction:ltr;text-orientation:mixed;dominant-baseline:auto;baseline-shift:baseline;text-anchor:start;white-space:normal;shape-padding:0;shape-margin:0;inline-size:0;clip-rule:nonzero;display:inline;overflow:visible;visibility:visible;isolation:auto;mix-blend-mode:normal;color-interpolation:sRGB;color-interpolation-filters:linearRGB;solid-color:#000000;solid-opacity:1;vector-effect:none;fill:#ffa4a4;fill-opacity:1;fill-rule:nonzero;stroke:none;stroke-width:3.5;stroke-linecap:butt;stroke-linejoin:miter;stroke-miterlimit:4;stroke-dasharray:none;stroke-dashoffset:0;stroke-opacity:1;paint-order:stroke fill markers;color-rendering:auto;image-rendering:auto;shape-rendering:auto;text-rendering:auto;enable-background:accumulate;stop-color:#000000"
       d="m 125.41291,110.47968 c -0.54941,-0.006 -1.10199,0.005 -1.65622,0.0342 7.80166,8.97111 6.73583,20.79563 -1.37137,26.84506 0.35797,-0.17502 0.75231,-0.26277 1.15072,-0.25608 0.20323,0.004 0.40529,0.0316 0.60178,0.0836 1.84801,0.48944 3.14776,1.83769 3.74235,3.35388 0.5946,1.51619 0.56361,3.53433 -0.85117,4.978 -0.0879,0.0895 -0.1787,0.17261 -0.26879,0.25675 0.4809,0.56475 0.82748,1.2009 1.04374,1.86349 5.47865,0.81523 11.27495,-1.16352 14.6224,-3.64941 7.16438,-5.51864 6.31778,-17.28982 2.59831,-23.08667 -3.77654,-6.37824 -11.37057,-10.33296 -19.61175,-10.42269 z"
       id="path189"
       inkscape:connector-curvature="0" />
    <path
       inkscape:label="right-eye"
       style="color:#000000;font-style:normal;font-variant:normal;font-weight:normal;font-stretch:normal;font-size:medium;line-height:normal;font-family:sans-serif;font-variant-ligatures:normal;font-variant-position:normal;font-variant-caps:normal;font-variant-numeric:normal;font-variant-alternates:normal;font-variant-east-asian:normal;font-feature-settings:normal;font-variation-settings:normal;text-indent:0;text-align:start;text-decoration:none;text-decoration-line:none;text-decoration-style:solid;text-decoration-color:#000000;letter-spacing:normal;word-spacing:normal;text-transform:none;writing-mode:lr-tb;direction:ltr;text-orientation:mixed;dominant-baseline:auto;baseline-shift:baseline;text-anchor:start;white-space:normal;shape-padding:0;shape-margin:0;inline-size:0;clip-rule:nonzero;display:inline;overflow:visible;visibility:visible;isolation:auto;mix-blend-mode:normal;color-interpolation:sRGB;color-interpolation-filters:linearRGB;solid-color:#000000;solid-opacity:1;vector-effect:none;fill:#ffffff;fill-opacity:1;fill-rule:nonzero;stroke:none;stroke-width:3.5333;stroke-linecap:butt;stroke-linejoin:miter;stroke-miterlimit:4;stroke-dasharray:none;stroke-dashoffset:0;stroke-opacity:1;paint-order:stroke fill markers;color-rendering:auto;image-rendering:auto;shape-rendering:auto;text-rendering:auto;enable-background:accumulate;stop-color:#000000"
       d="m 111.51236,116.51614 c 0,3.8762 -3.1833,7.01847 -7.11011,7.01847 -3.9268,0 -7.110106,-3.14227 -7.110108,-7.01847 2e-6,-3.87619 3.183308,-7.01846 7.110108,-7.01846 3.92681,0 7.11011,3.14227 7.11011,7.01846"
       id="path123"
       inkscape:connector-curvature="0" />
    <path
       inkscape:label="left-eye"
       inkscape:connector-curvature="0"
       id="path123-1"
       d="m 96.166527,116.51614 c 0,3.8762 -3.1833,7.01847 -7.11011,7.01847 -3.9268,0 -7.110107,-3.14227 -7.110109,-7.01847 2e-6,-3.87619 3.183309,-7.01846 7.110109,-7.01846 3.92681,0 7.11011,3.14227 7.11011,7.01846"
       style="color:#000000;font-style:normal;font-variant:normal;font-weight:normal;font-stretch:normal;font-size:medium;line-height:normal;font-family:sans-serif;font-variant-ligatures:normal;font-variant-position:normal;font-variant-caps:normal;font-variant-numeric:normal;font-variant-alternates:normal;font-variant-east-asian:normal;font-feature-settings:normal;font-variation-settings:normal;text-indent:0;text-align:start;text-decoration:none;text-decoration-line:none;text-decoration-style:solid;text-decoration-color:#000000;letter-spacing:normal;word-spacing:normal;text-transform:none;writing-mode:lr-tb;direction:ltr;text-orientation:mixed;dominant-baseline:auto;baseline-shift:baseline;text-anchor:start;white-space:normal;shape-padding:0;shape-margin:0;inline-size:0;clip-rule:nonzero;display:inline;overflow:visible;visibility:visible;isolation:auto;mix-blend-mode:normal;color-interpolation:sRGB;color-interpolation-filters:linearRGB;solid-color:#000000;solid-opacity:1;vector-effect:none;fill:#ffffff;fill-opacity:1;fill-rule:nonzero;stroke:none;stroke-width:3.5333;stroke-linecap:butt;stroke-linejoin:miter;stroke-miterlimit:4;stroke-dasharray:none;stroke-dashoffset:0;stroke-opacity:1;paint-order:stroke fill markers;color-rendering:auto;image-rendering:auto;shape-rendering:auto;text-rendering:auto;enable-background:accumulate;stop-color:#000000" />
    <path
       inkscape:label="head"
       style="color:#000000;font-style:normal;font-variant:normal;font-weight:normal;font-stretch:normal;font-size:medium;line-height:normal;font-family:sans-serif;font-variant-ligatures:normal;font-variant-position:normal;font-variant-caps:normal;font-variant-numeric:normal;font-variant-alternates:normal;font-variant-east-asian:normal;font-feature-settings:normal;font-variation-settings:normal;text-indent:0;text-align:start;text-decoration:none;text-decoration-line:none;text-decoration-style:solid;text-decoration-color:#000000;letter-spacing:normal;word-spacing:normal;text-transform:none;writing-mode:lr-tb;direction:ltr;text-orientation:mixed;dominant-baseline:auto;baseline-shift:baseline;text-anchor:start;white-space:normal;shape-padding:0;shape-margin:0;inline-size:0;clip-rule:nonzero;display:inline;overflow:visible;visibility:visible;isolation:auto;mix-blend-mode:normal;color-interpolation:sRGB;color-interpolation-filters:linearRGB;solid-color:#000000;solid-opacity:1;vector-effect:none;fill:#ffa4a4;fill-opacity:1;fill-rule:nonzero;stroke:none;stroke-width:3.5;stroke-linecap:butt;stroke-linejoin:miter;stroke-miterlimit:4;stroke-dasharray:none;stroke-dashoffset:0;stroke-opacity:1;paint-order:stroke fill markers;color-rendering:auto;image-rendering:auto;shape-rendering:auto;text-rendering:auto;enable-background:accumulate;stop-color:#000000"
       d="m 107.62384,107.13317 c -5.14338,0.006 -10.027898,1.59723 -13.705015,4.36819 1.339594,1.30825 2.094852,3.10155 2.094833,4.97399 5e-5,3.83977 -3.112713,6.95253 -6.952483,6.95248 -0.924753,-3.2e-4 -1.84015,-0.18513 -2.692597,-0.5436 0.288988,0.0602 0.583388,0.0907 0.87859,0.091 2.387412,8e-5 4.322812,-1.93532 4.32273,-4.32273 8.2e-5,-2.38741 -1.935318,-4.32281 -4.32273,-4.32273 -0.0107,-4e-5 -0.02139,-4e-5 -0.03209,0 -2.374613,0.0179 -4.29013,1.94805 -4.289981,4.32273 9e-6,1.25243 0.543235,2.4433 1.489046,3.26429 -3.717784,4.79378 -7.23882,9.25437 -12.337663,10.62061 10.590279,2.10205 21.051181,5.27866 35.536,-3.00953 -0.82088,4.13135 -3.39651,7.80566 -10.233473,7.49675 3.092833,1.47883 6.640323,2.26923 10.272923,2.26935 5.5404,-8e-5 14.87172,-1.64823 17.77702,-12.39718 3.02737,-11.20056 -7.51937,-19.68467 -17.77702,-19.76354 z m -18.986582,8.4315 c 0.937745,2.7e-4 1.69777,0.76058 1.697674,1.69833 1.01e-4,0.93775 -0.759925,1.69807 -1.697674,1.69834 -0.938006,10e-5 -1.698434,-0.76033 -1.698333,-1.69834 -9.6e-5,-0.938 0.76033,-1.69843 1.698333,-1.69833 z m 15.336512,0 c 0.938,-1e-4 1.69843,0.76033 1.69833,1.69833 1e-4,0.93801 -0.76032,1.69844 -1.69833,1.69834 -0.93775,-2.6e-4 -1.69778,-0.76059 -1.69768,-1.69834 -1e-4,-0.93775 0.75993,-1.69807 1.69768,-1.69833 z m 0.40118,-6.04181 c 0.008,-10e-6 0.0156,-10e-6 0.0234,0 3.83977,-5e-5 6.95254,3.11272 6.95248,6.95249 5e-5,3.83977 -3.11271,6.95253 -6.95248,6.95248 -0.92592,-9e-5 -1.8425,-0.18514 -2.69593,-0.54428 0.29006,0.0607 0.58558,0.0914 0.88192,0.0916 2.38741,8e-5 4.32281,-1.93532 4.32273,-4.32273 8e-5,-2.38741 -1.93532,-4.32281 -4.32273,-4.32273 -0.0109,-4e-5 -0.0218,-4e-5 -0.0327,0 -2.37461,0.0179 -4.290118,1.94805 -4.289969,4.32273 1.03e-4,0.55844 0.108414,1.11157 0.318944,1.6288 -0.740225,-1.13131 -1.134541,-2.45391 -1.134676,-3.80587 -7.1e-5,-3.83065 3.098451,-6.93963 6.929071,-6.95248 z"
       id="path195"
       inkscape:connector-curvature="0" />
  </g>
</svg>
